<svg width="17" height="16" viewBox="0 0 17 16" fill="none" xmlns="http://www.w3.org/2000/svg">
<path d="M11.1923 14V3.33333C11.1923 2.97971 11.0519 2.64057 10.8018 2.39052C10.5518 2.14048 10.2126 2 9.85901 2H7.19234C6.83872 2 6.49958 2.14048 6.24953 2.39052C5.99949 2.64057 5.85901 2.97971 5.85901 3.33333V14M3.19234 4.66667H13.859C14.5954 4.66667 15.1923 5.26362 15.1923 6V12.6667C15.1923 13.403 14.5954 14 13.859 14H3.19234C2.45596 14 1.85901 13.403 1.85901 12.6667V6C1.85901 5.26362 2.45596 4.66667 3.19234 4.66667Z" stroke="black" stroke-width="1.6" stroke-linecap="round" stroke-linejoin="round"/>
</svg>
