<svg width="44" height="44" viewBox="0 0 44 44" fill="none" xmlns="http://www.w3.org/2000/svg">
<g clip-path="url(#clip0_58_158)">
<path d="M16.5 34.8333C7.33335 37.5833 7.33335 30.25 3.66669 29.3333M29.3334 40.3333V33.2383C29.4021 32.3641 29.284 31.4853 28.9869 30.6603C28.6897 29.8352 28.2204 29.0829 27.61 28.4533C33.3667 27.8116 39.4167 25.63 39.4167 15.62C39.4162 13.0603 38.4316 10.5988 36.6667 8.74497C37.5024 6.50556 37.4433 4.03027 36.5017 1.8333C36.5017 1.8333 34.3384 1.19163 29.3334 4.54663C25.1314 3.40781 20.702 3.40781 16.5 4.54663C11.495 1.19163 9.33169 1.8333 9.33169 1.8333C8.39004 4.03027 8.33095 6.50556 9.16669 8.74497C7.38859 10.6126 6.40298 13.0963 6.41669 15.675C6.41669 25.6116 12.4667 27.7933 18.2234 28.5083C17.6202 29.1316 17.155 29.8749 16.8581 30.6898C16.5612 31.5048 16.4392 32.3731 16.5 33.2383V40.3333" stroke="white" stroke-width="4" stroke-linecap="round" stroke-linejoin="round"/>
</g>
<defs>
<clipPath id="clip0_58_158">
<rect width="44" height="44" fill="white"/>
</clipPath>
</defs>
</svg>
