<svg width="34" height="34" viewBox="0 0 34 34" fill="none" xmlns="http://www.w3.org/2000/svg">
<path d="M22.6666 11.3335C24.921 11.3335 27.083 12.308 28.6771 14.0428C30.2711 15.7775 31.1666 18.1302 31.1666 20.5835V31.3752H25.5V20.5835C25.5 19.7657 25.2015 18.9815 24.6701 18.4033C24.1388 17.825 23.4181 17.5002 22.6666 17.5002C21.9152 17.5002 21.1945 17.825 20.6632 18.4033C20.1318 18.9815 19.8333 19.7657 19.8333 20.5835V31.3752H14.1666V20.5835C14.1666 18.1302 15.0622 15.7775 16.6562 14.0428C18.2503 12.308 20.4123 11.3335 22.6666 11.3335Z" stroke="white" stroke-width="4" stroke-linecap="round" stroke-linejoin="round"/>
<path d="M8.49998 12.8752H2.83331V31.3752H8.49998V12.8752Z" stroke="white" stroke-width="4" stroke-linecap="round" stroke-linejoin="round"/>
<path d="M5.66665 8.25016C7.23145 8.25016 8.49998 6.86971 8.49998 5.16683C8.49998 3.46395 7.23145 2.0835 5.66665 2.0835C4.10184 2.0835 2.83331 3.46395 2.83331 5.16683C2.83331 6.86971 4.10184 8.25016 5.66665 8.25016Z" stroke="white" stroke-width="4" stroke-linecap="round" stroke-linejoin="round"/>
</svg>
