<?xml version="1.0" encoding="UTF-8"?>
<svg id="Layer_1" data-name="Layer 1" xmlns="http://www.w3.org/2000/svg" viewBox="0 0 205.11 107.57">
  <defs>
    <style>
      .cls-1 {
        fill: none;
      }

      .cls-1, .cls-2 {
        stroke-width: 5px;
      }

      .cls-1, .cls-2, .cls-3 {
        stroke: #fff;
        stroke-miterlimit: 10;
      }

      .cls-4 {
        letter-spacing: -.04em;
      }

      .cls-3 {
        fill: #fff;
        font-family: 'Al_Saflers', 'Al Saflers';
        font-size: 28.88px;
      }
    </style>
  </defs>
  <text class="cls-3" transform="translate(60.12 -9.37)"><tspan class="cls-4" x="0" y="0">l</tspan><tspan x="6.94" y="0">u</tspan></text>
  <g>
    <path class="cls-1" d="M52.74,69.87c2.06-4.18,6.04-10.92,13.2-17.01,5.63-4.78,11.18-7.44,15.07-8.92"/>
    <circle class="cls-2" cx="40.06" cy="46.9" r="2.48"/>
    <circle class="cls-2" cx="91.76" cy="21.46" r="2.48"/>
    <path class="cls-1" d="M31.81,76.13c-.3.26-4.94,4.46-3.91,10.39.49,2.84,1.14,6.36,5.75,7.59,4.72,1.27,7.75-3.57,11.97-8.99,3.19-3.49,6.03-3.46,6.61-3.43,4.69.2,9.64,6.34,9.73,15.42"/>
    <path class="cls-1" d="M3.07,27.7c6.2,1.48,18.43,3.53,33.14,0,16.02-3.85,26.56-12.29,31.32-16.63-2.24,5.89-5.58,17.06-4.12,31.04,2.49,23.86,17.15,38.52,20.83,42,17.74,16.78,38.71,18.39,45.41,18.59,26.55.8,45.02-13.97,52.49-21.16,12.3-11.83,17.61-25.05,19.88-32.17"/>
    <path class="cls-1" d="M90.35,38.05c.28,4.36,1.47,13.55,7.89,22.39,8.83,12.16,23.32,17.83,35.99,17.43,19.1-.61,36.68-15.13,42.7-36.14"/>
    <path class="cls-1" d="M113.71,25.62c-3.04,11.94,3.94,24.13,15.21,27.51,11.93,3.58,25.14-3.75,28.4-16.4"/>
  </g>
</svg>